<?xml version="1.0" ?><svg data-name="Layer 1" id="Layer_1" viewBox="0 0 32 32" xmlns="http://www.w3.org/2000/svg"><title/><path d="M12,15H6a3,3,0,0,1-3-3V6A3,3,0,0,1,6,3h6a3,3,0,0,1,3,3v6A3,3,0,0,1,12,15ZM6,5A1,1,0,0,0,5,6v6a1,1,0,0,0,1,1h6a1,1,0,0,0,1-1V6a1,1,0,0,0-1-1Z" fill="#616161"/><path d="M26,15H20a3,3,0,0,1-3-3V6a3,3,0,0,1,3-3h6a3,3,0,0,1,3,3v6A3,3,0,0,1,26,15ZM20,5a1,1,0,0,0-1,1v6a1,1,0,0,0,1,1h6a1,1,0,0,0,1-1V6a1,1,0,0,0-1-1Z" fill="#616161"/><path d="M12,29H6a3,3,0,0,1-3-3V20a3,3,0,0,1,3-3h6a3,3,0,0,1,3,3v6A3,3,0,0,1,12,29ZM6,19a1,1,0,0,0-1,1v6a1,1,0,0,0,1,1h6a1,1,0,0,0,1-1V20a1,1,0,0,0-1-1Z" fill="#616161"/><path d="M23,29a6,6,0,1,1,6-6A6.006,6.006,0,0,1,23,29Zm0-10a4,4,0,1,0,4,4A4,4,0,0,0,23,19Z" fill="#616161"/></svg>
