<?xml version="1.0" ?><svg viewBox="0 0 32 32" xmlns="http://www.w3.org/2000/svg"><title/><g data-name="paper, texture, background, cardboard, pattern, page, blank, white, letter, canvas" id="paper_texture_background_cardboard_pattern_page_blank_white_letter_canvas"><path d="M26,11a1,1,0,0,0-.28-.71l-8-8A1,1,0,0,0,17,2H9A3,3,0,0,0,6,5V27a3,3,0,0,0,3,3H23a3,3,0,0,0,3-3V11ZM18,5.41,22.59,10H19a1,1,0,0,1-1-1ZM23,28H9a1,1,0,0,1-1-1V5A1,1,0,0,1,9,4h7V9a3,3,0,0,0,3,3h5V27A1,1,0,0,1,23,28Z" fill="#616161"/><path d="M11,16h4a1,1,0,0,0,0-2H11a1,1,0,0,0,0,2Z" fill="#616161"/><path d="M21,18H11a1,1,0,0,0,0,2H21a1,1,0,0,0,0-2Z" fill="#616161"/><path d="M21,22H11a1,1,0,0,0,0,2H21a1,1,0,0,0,0-2Z" fill="#616161"/></g></svg>
