<?xml version="1.0" ?><svg viewBox="0 0 32 32" xmlns="http://www.w3.org/2000/svg"><title/><g data-name="pen, design, office, vector, business, pencil, write, sign, stationery, graphic" id="pen_design_office_vector_business_pencil_write_sign_stationery_graphic"><path d="M28.71,3.29a4.52,4.52,0,0,0-6.37,0L2.92,22.72a1,1,0,0,0-.29.59L2,28.89A1,1,0,0,0,3,30l5.69-.63a1,1,0,0,0,.59-.29l2.38-2.37,0,0,0,0L25.85,12.51a3.24,3.24,0,0,1-.58,3.8l-5,5a1,1,0,0,0,0,1.42,1,1,0,0,0,1.42,0l5-5a5.28,5.28,0,0,0,.63-6.68l1.39-1.39A4.52,4.52,0,0,0,28.71,3.29ZM22,13.56,18.44,10,21,7.44,24.56,11Zm-11,11L7.44,21,17,11.44,20.56,15ZM8.12,27.42l-4,.45.45-4L6,22.44,9.56,26ZM27.29,8.24,26,9.56,22.44,6l1.32-1.32a2.5,2.5,0,0,1,3.53,3.53Z" fill="#616161"/></g></svg>
